G04 Layer: TopSilkscreenLayer*
G04 EasyEDA v6.5.22, 2023-01-09 16:32:10*
G04 a5f1863f92214070b907f627d0471349,a9f00e695b414744abbaf3eb758947ea,10*
G04 Gerber Generator version 0.2*
G04 Scale: 100 percent, Rotated: No, Reflected: No *
G04 Dimensions in millimeters *
G04 leading zeros omitted , absolute positions ,4 integer and 5 decimal *
%FSLAX45Y45*%
%MOMM*%

%ADD10C,0.2000*%
%ADD11C,0.1524*%
%ADD12C,0.2032*%
%ADD13C,0.2030*%
%ADD14C,0.2540*%
%ADD15C,0.0125*%

%LPD*%
D10*
X1481328Y4849621D02*
G01*
X1539494Y4849621D01*
X1550415Y4846065D01*
X1554226Y4842510D01*
X1557781Y4835144D01*
X1557781Y4827778D01*
X1554226Y4820665D01*
X1550415Y4816855D01*
X1539494Y4813300D01*
X1532381Y4813300D01*
X1481328Y4873752D02*
G01*
X1557781Y4873752D01*
X1557781Y4873752D02*
G01*
X1557781Y4917186D01*
X1499615Y4995926D02*
G01*
X1492250Y4992115D01*
X1484884Y4985004D01*
X1481328Y4977637D01*
X1481328Y4963160D01*
X1484884Y4955794D01*
X1492250Y4948681D01*
X1499615Y4944871D01*
X1510537Y4941315D01*
X1528571Y4941315D01*
X1539494Y4944871D01*
X1546860Y4948681D01*
X1554226Y4955794D01*
X1557781Y4963160D01*
X1557781Y4977637D01*
X1554226Y4985004D01*
X1546860Y4992115D01*
X1539494Y4995926D01*
X1481328Y5056123D02*
G01*
X1539494Y5056123D01*
X1550415Y5052568D01*
X1554226Y5049012D01*
X1557781Y5041645D01*
X1557781Y5034279D01*
X1554226Y5027168D01*
X1550415Y5023357D01*
X1539494Y5019802D01*
X1532381Y5019802D01*
X1481328Y5080254D02*
G01*
X1557781Y5080254D01*
X1557781Y5080254D02*
G01*
X1557781Y5123942D01*
X1499615Y5202428D02*
G01*
X1492250Y5198871D01*
X1484884Y5191505D01*
X1481328Y5184139D01*
X1481328Y5169662D01*
X1484884Y5162295D01*
X1492250Y5155184D01*
X1499615Y5151373D01*
X1510537Y5147818D01*
X1528571Y5147818D01*
X1539494Y5151373D01*
X1546860Y5155184D01*
X1554226Y5162295D01*
X1557781Y5169662D01*
X1557781Y5184139D01*
X1554226Y5191505D01*
X1546860Y5198871D01*
X1539494Y5202428D01*
X1481328Y5262879D02*
G01*
X1539494Y5262879D01*
X1550415Y5259070D01*
X1554226Y5255513D01*
X1557781Y5248147D01*
X1557781Y5241036D01*
X1554226Y5233670D01*
X1550415Y5230113D01*
X1539494Y5226304D01*
X1532381Y5226304D01*
X1481328Y5286755D02*
G01*
X1557781Y5286755D01*
X1557781Y5286755D02*
G01*
X1557781Y5330444D01*
X1499615Y5408929D02*
G01*
X1492250Y5405373D01*
X1484884Y5398007D01*
X1481328Y5390642D01*
X1481328Y5376163D01*
X1484884Y5369052D01*
X1492250Y5361686D01*
X1499615Y5358129D01*
X1510537Y5354320D01*
X1528571Y5354320D01*
X1539494Y5358129D01*
X1546860Y5361686D01*
X1554226Y5369052D01*
X1557781Y5376163D01*
X1557781Y5390642D01*
X1554226Y5398007D01*
X1546860Y5405373D01*
X1539494Y5408929D01*
X1481328Y5469381D02*
G01*
X1539494Y5469381D01*
X1550415Y5465571D01*
X1554226Y5462015D01*
X1557781Y5454650D01*
X1557781Y5447537D01*
X1554226Y5440171D01*
X1550415Y5436615D01*
X1539494Y5433060D01*
X1532381Y5433060D01*
X1481328Y5493257D02*
G01*
X1557781Y5493257D01*
X1557781Y5493257D02*
G01*
X1557781Y5536945D01*
X1499615Y5615431D02*
G01*
X1492250Y5611876D01*
X1484884Y5604510D01*
X1481328Y5597397D01*
X1481328Y5582665D01*
X1484884Y5575554D01*
X1492250Y5568187D01*
X1499615Y5564631D01*
X1510537Y5560821D01*
X1528571Y5560821D01*
X1539494Y5564631D01*
X1546860Y5568187D01*
X1554226Y5575554D01*
X1557781Y5582665D01*
X1557781Y5597397D01*
X1554226Y5604510D01*
X1546860Y5611876D01*
X1539494Y5615431D01*
D11*
X1487678Y4187444D02*
G01*
X1477263Y4177029D01*
X1472184Y4161536D01*
X1472184Y4140707D01*
X1477263Y4125213D01*
X1487678Y4114800D01*
X1498092Y4114800D01*
X1508505Y4119879D01*
X1513839Y4125213D01*
X1518920Y4135628D01*
X1529334Y4166870D01*
X1534413Y4177029D01*
X1539747Y4182363D01*
X1550162Y4187444D01*
X1565655Y4187444D01*
X1576070Y4177029D01*
X1581150Y4161536D01*
X1581150Y4140707D01*
X1576070Y4125213D01*
X1565655Y4114800D01*
X1472184Y4273804D02*
G01*
X1555242Y4273804D01*
X1570989Y4268470D01*
X1576070Y4263389D01*
X1581150Y4252976D01*
X1581150Y4242562D01*
X1576070Y4232147D01*
X1570989Y4227068D01*
X1555242Y4221734D01*
X1544828Y4221734D01*
X1493012Y4308094D02*
G01*
X1487678Y4318507D01*
X1472184Y4334002D01*
X1581150Y4334002D01*
X775715Y5053329D02*
G01*
X692657Y5053329D01*
X676910Y5058663D01*
X671829Y5063744D01*
X666750Y5074157D01*
X666750Y5084571D01*
X671829Y5094986D01*
X676910Y5100320D01*
X692657Y5105400D01*
X703071Y5105400D01*
X754887Y5019039D02*
G01*
X760221Y5008879D01*
X775715Y4993131D01*
X666750Y4993131D01*
X560070Y4321555D02*
G01*
X560070Y4238497D01*
X554736Y4222750D01*
X549655Y4217670D01*
X539242Y4212589D01*
X528828Y4212589D01*
X518413Y4217670D01*
X513079Y4222750D01*
X508000Y4238497D01*
X508000Y4248912D01*
X599439Y4295647D02*
G01*
X599439Y4300728D01*
X604520Y4311142D01*
X609854Y4316476D01*
X620268Y4321555D01*
X641095Y4321555D01*
X651510Y4316476D01*
X656589Y4311142D01*
X661670Y4300728D01*
X661670Y4290313D01*
X656589Y4279900D01*
X646176Y4264405D01*
X594360Y4212589D01*
X667004Y4212589D01*
X1774444Y5611621D02*
G01*
X1764029Y5622036D01*
X1748536Y5627115D01*
X1727707Y5627115D01*
X1712213Y5622036D01*
X1701800Y5611621D01*
X1701800Y5601207D01*
X1706879Y5590794D01*
X1712213Y5585460D01*
X1722628Y5580379D01*
X1753870Y5569965D01*
X1764029Y5564886D01*
X1769363Y5559552D01*
X1774444Y5549137D01*
X1774444Y5533644D01*
X1764029Y5523229D01*
X1748536Y5518150D01*
X1727707Y5518150D01*
X1712213Y5523229D01*
X1701800Y5533644D01*
X1808734Y5606287D02*
G01*
X1819147Y5611621D01*
X1834895Y5627115D01*
X1834895Y5518150D01*
D12*
X1920128Y5381861D02*
G01*
X1910730Y5377289D01*
X1901586Y5367891D01*
X1897014Y5358747D01*
X1892188Y5344777D01*
X1892188Y5321663D01*
X1897014Y5307947D01*
X1901586Y5298803D01*
X1910730Y5289405D01*
X1920128Y5284833D01*
X1938416Y5284833D01*
X1947814Y5289405D01*
X1956958Y5298803D01*
X1961530Y5307947D01*
X1966102Y5321663D01*
X1966102Y5344777D01*
X1961530Y5358747D01*
X1956958Y5367891D01*
X1947814Y5377289D01*
X1938416Y5381861D01*
X1920128Y5381861D01*
X2065924Y5358747D02*
G01*
X2061352Y5367891D01*
X2052208Y5377289D01*
X2042810Y5381861D01*
X2024268Y5381861D01*
X2015124Y5377289D01*
X2005980Y5367891D01*
X2001408Y5358747D01*
X1996582Y5344777D01*
X1996582Y5321663D01*
X2001408Y5307947D01*
X2005980Y5298803D01*
X2015124Y5289405D01*
X2024268Y5284833D01*
X2042810Y5284833D01*
X2052208Y5289405D01*
X2061352Y5298803D01*
X2065924Y5307947D01*
X2161174Y5367891D02*
G01*
X2151776Y5377289D01*
X2138060Y5381861D01*
X2119518Y5381861D01*
X2105548Y5377289D01*
X2096404Y5367891D01*
X2096404Y5358747D01*
X2100976Y5349603D01*
X2105548Y5344777D01*
X2114946Y5340205D01*
X2142632Y5331061D01*
X2151776Y5326489D01*
X2156348Y5321663D01*
X2161174Y5312519D01*
X2161174Y5298803D01*
X2151776Y5289405D01*
X2138060Y5284833D01*
X2119518Y5284833D01*
X2105548Y5289405D01*
X2096404Y5298803D01*
X1905063Y5127805D02*
G01*
X1905063Y5030777D01*
X1935543Y5127805D02*
G01*
X1935543Y5030777D01*
X1935543Y5127805D02*
G01*
X2000059Y5030777D01*
X2000059Y5127805D02*
G01*
X2000059Y5030777D01*
X2063051Y5127805D02*
G01*
X2063051Y5030777D01*
X2030539Y5127805D02*
G01*
X2095309Y5127805D01*
X2125789Y5109263D02*
G01*
X2134933Y5113835D01*
X2148903Y5127805D01*
X2148903Y5030777D01*
X1866968Y4886510D02*
G01*
X1866968Y4789482D01*
X1897448Y4886510D02*
G01*
X1897448Y4789482D01*
X1897448Y4886510D02*
G01*
X1961964Y4789482D01*
X1961964Y4886510D02*
G01*
X1961964Y4789482D01*
X2024956Y4886510D02*
G01*
X2024956Y4789482D01*
X1992444Y4886510D02*
G01*
X2057214Y4886510D01*
X2092266Y4863396D02*
G01*
X2092266Y4867968D01*
X2096838Y4877366D01*
X2101410Y4881938D01*
X2110808Y4886510D01*
X2129096Y4886510D01*
X2138494Y4881938D01*
X2143066Y4877366D01*
X2147638Y4867968D01*
X2147638Y4858824D01*
X2143066Y4849680D01*
X2133922Y4835710D01*
X2087694Y4789482D01*
X2152210Y4789482D01*
X1969582Y4605840D02*
G01*
X1960438Y4615238D01*
X1946468Y4619810D01*
X1928180Y4619810D01*
X1914210Y4615238D01*
X1905066Y4605840D01*
X1905066Y4596696D01*
X1909638Y4587552D01*
X1914210Y4582980D01*
X1923354Y4578154D01*
X1951294Y4569010D01*
X1960438Y4564438D01*
X1965010Y4559866D01*
X1969582Y4550468D01*
X1969582Y4536752D01*
X1960438Y4527354D01*
X1946468Y4522782D01*
X1928180Y4522782D01*
X1914210Y4527354D01*
X1905066Y4536752D01*
X2069404Y4596696D02*
G01*
X2064832Y4605840D01*
X2055434Y4615238D01*
X2046290Y4619810D01*
X2027748Y4619810D01*
X2018604Y4615238D01*
X2009460Y4605840D01*
X2004634Y4596696D01*
X2000062Y4582980D01*
X2000062Y4559866D01*
X2004634Y4545896D01*
X2009460Y4536752D01*
X2018604Y4527354D01*
X2027748Y4522782D01*
X2046290Y4522782D01*
X2055434Y4527354D01*
X2064832Y4536752D01*
X2069404Y4545896D01*
X2099884Y4619810D02*
G01*
X2164654Y4522782D01*
X2164654Y4619810D02*
G01*
X2099884Y4522782D01*
X1982279Y4351837D02*
G01*
X1973135Y4361235D01*
X1959165Y4365807D01*
X1940877Y4365807D01*
X1926907Y4361235D01*
X1917763Y4351837D01*
X1917763Y4342693D01*
X1922335Y4333549D01*
X1926907Y4328977D01*
X1936051Y4324151D01*
X1963991Y4315007D01*
X1973135Y4310435D01*
X1977707Y4305863D01*
X1982279Y4296465D01*
X1982279Y4282749D01*
X1973135Y4273351D01*
X1959165Y4268779D01*
X1940877Y4268779D01*
X1926907Y4273351D01*
X1917763Y4282749D01*
X2012759Y4365807D02*
G01*
X2012759Y4268779D01*
X2012759Y4365807D02*
G01*
X2045271Y4365807D01*
X2058987Y4361235D01*
X2068131Y4351837D01*
X2072957Y4342693D01*
X2077529Y4328977D01*
X2077529Y4305863D01*
X2072957Y4291893D01*
X2068131Y4282749D01*
X2058987Y4273351D01*
X2045271Y4268779D01*
X2012759Y4268779D01*
X2108009Y4365807D02*
G01*
X2172525Y4268779D01*
X2172525Y4365807D02*
G01*
X2108009Y4268779D01*
X888951Y5610588D02*
G01*
X926035Y5513560D01*
X962865Y5610588D02*
G01*
X926035Y5513560D01*
X993345Y5610588D02*
G01*
X993345Y5513560D01*
X1023825Y5610588D02*
G01*
X1023825Y5513560D01*
X1023825Y5610588D02*
G01*
X1088595Y5513560D01*
X1088595Y5610588D02*
G01*
X1088595Y5513560D01*
X834699Y5356486D02*
G01*
X885499Y5356486D01*
X857813Y5319656D01*
X871783Y5319656D01*
X880927Y5314830D01*
X885499Y5310258D01*
X890071Y5296542D01*
X890071Y5287144D01*
X885499Y5273428D01*
X876355Y5264030D01*
X862385Y5259458D01*
X848669Y5259458D01*
X834699Y5264030D01*
X830127Y5268856D01*
X825555Y5278000D01*
X920551Y5356486D02*
G01*
X957635Y5259458D01*
X994465Y5356486D02*
G01*
X957635Y5259458D01*
X1034343Y5356486D02*
G01*
X1085143Y5356486D01*
X1057203Y5319656D01*
X1071173Y5319656D01*
X1080317Y5314830D01*
X1085143Y5310258D01*
X1089715Y5296542D01*
X1089715Y5287144D01*
X1085143Y5273428D01*
X1075745Y5264030D01*
X1062029Y5259458D01*
X1048059Y5259458D01*
X1034343Y5264030D01*
X1029517Y5268856D01*
X1024945Y5278000D01*
X894641Y5079372D02*
G01*
X890069Y5088516D01*
X880925Y5097914D01*
X871781Y5102486D01*
X853239Y5102486D01*
X843841Y5097914D01*
X834697Y5088516D01*
X830125Y5079372D01*
X825553Y5065656D01*
X825553Y5042542D01*
X830125Y5028572D01*
X834697Y5019428D01*
X843841Y5010030D01*
X853239Y5005458D01*
X871781Y5005458D01*
X880925Y5010030D01*
X890069Y5019428D01*
X894641Y5028572D01*
X894641Y5042542D01*
X871781Y5042542D02*
G01*
X894641Y5042542D01*
X925121Y5102486D02*
G01*
X925121Y5005458D01*
X925121Y5102486D02*
G01*
X989891Y5005458D01*
X989891Y5102486D02*
G01*
X989891Y5005458D01*
X1020371Y5102486D02*
G01*
X1020371Y5005458D01*
X1020371Y5102486D02*
G01*
X1052629Y5102486D01*
X1066599Y5097914D01*
X1075743Y5088516D01*
X1080315Y5079372D01*
X1085141Y5065656D01*
X1085141Y5042542D01*
X1080315Y5028572D01*
X1075743Y5019428D01*
X1066599Y5010030D01*
X1052629Y5005458D01*
X1020371Y5005458D01*
X890150Y4580569D02*
G01*
X881006Y4589967D01*
X867036Y4594539D01*
X848494Y4594539D01*
X834778Y4589967D01*
X825380Y4580569D01*
X825380Y4571425D01*
X830206Y4562281D01*
X834778Y4557455D01*
X843922Y4552883D01*
X871608Y4543739D01*
X881006Y4539167D01*
X885578Y4534341D01*
X890150Y4525197D01*
X890150Y4511481D01*
X881006Y4502083D01*
X867036Y4497511D01*
X848494Y4497511D01*
X834778Y4502083D01*
X825380Y4511481D01*
X920630Y4594539D02*
G01*
X920630Y4497511D01*
X920630Y4594539D02*
G01*
X952888Y4594539D01*
X966858Y4589967D01*
X976002Y4580569D01*
X980574Y4571425D01*
X985400Y4557455D01*
X985400Y4534341D01*
X980574Y4520625D01*
X976002Y4511481D01*
X966858Y4502083D01*
X952888Y4497511D01*
X920630Y4497511D01*
X1052710Y4594539D02*
G01*
X1015880Y4497511D01*
X1052710Y4594539D02*
G01*
X1089540Y4497511D01*
X1029596Y4529769D02*
G01*
X1075824Y4529769D01*
X983622Y4342742D02*
G01*
X979050Y4351886D01*
X969906Y4361284D01*
X960508Y4365856D01*
X942220Y4365856D01*
X932822Y4361284D01*
X923678Y4351886D01*
X919106Y4342742D01*
X914280Y4328772D01*
X914280Y4305658D01*
X919106Y4291942D01*
X923678Y4282798D01*
X932822Y4273400D01*
X942220Y4268828D01*
X960508Y4268828D01*
X969906Y4273400D01*
X979050Y4282798D01*
X983622Y4291942D01*
X1078872Y4351886D02*
G01*
X1069474Y4361284D01*
X1055758Y4365856D01*
X1037216Y4365856D01*
X1023500Y4361284D01*
X1014102Y4351886D01*
X1014102Y4342742D01*
X1018674Y4333598D01*
X1023500Y4328772D01*
X1032644Y4324200D01*
X1060330Y4315056D01*
X1069474Y4310484D01*
X1074300Y4305658D01*
X1078872Y4296514D01*
X1078872Y4282798D01*
X1069474Y4273400D01*
X1055758Y4268828D01*
X1037216Y4268828D01*
X1023500Y4273400D01*
X1014102Y4282798D01*
X890079Y4072519D02*
G01*
X880935Y4081917D01*
X866965Y4086489D01*
X848677Y4086489D01*
X834707Y4081917D01*
X825563Y4072519D01*
X825563Y4063375D01*
X830135Y4054231D01*
X834707Y4049659D01*
X843851Y4044833D01*
X871791Y4035689D01*
X880935Y4031117D01*
X885507Y4026545D01*
X890079Y4017147D01*
X890079Y4003431D01*
X880935Y3994033D01*
X866965Y3989461D01*
X848677Y3989461D01*
X834707Y3994033D01*
X825563Y4003431D01*
X957643Y4086489D02*
G01*
X920559Y3989461D01*
X957643Y4086489D02*
G01*
X994473Y3989461D01*
X934529Y4021719D02*
G01*
X980757Y4021719D01*
X1052639Y4086489D02*
G01*
X1038923Y4081917D01*
X1029525Y4067947D01*
X1024953Y4044833D01*
X1024953Y4031117D01*
X1029525Y4008003D01*
X1038923Y3994033D01*
X1052639Y3989461D01*
X1062037Y3989461D01*
X1075753Y3994033D01*
X1085151Y4008003D01*
X1089723Y4031117D01*
X1089723Y4044833D01*
X1085151Y4067947D01*
X1075753Y4081917D01*
X1062037Y4086489D01*
X1052639Y4086489D01*
X890089Y4834514D02*
G01*
X880945Y4843912D01*
X866975Y4848484D01*
X848687Y4848484D01*
X834717Y4843912D01*
X825573Y4834514D01*
X825573Y4825370D01*
X830145Y4816226D01*
X834717Y4811654D01*
X843861Y4806828D01*
X871801Y4797684D01*
X880945Y4793112D01*
X885517Y4788540D01*
X890089Y4779142D01*
X890089Y4765426D01*
X880945Y4756028D01*
X866975Y4751456D01*
X848687Y4751456D01*
X834717Y4756028D01*
X825573Y4765426D01*
X989911Y4825370D02*
G01*
X985339Y4834514D01*
X975941Y4843912D01*
X966797Y4848484D01*
X948255Y4848484D01*
X939111Y4843912D01*
X929967Y4834514D01*
X925141Y4825370D01*
X920569Y4811654D01*
X920569Y4788540D01*
X925141Y4774570D01*
X929967Y4765426D01*
X939111Y4756028D01*
X948255Y4751456D01*
X966797Y4751456D01*
X975941Y4756028D01*
X985339Y4765426D01*
X989911Y4774570D01*
X1020391Y4848484D02*
G01*
X1020391Y4751456D01*
X1020391Y4751456D02*
G01*
X1075763Y4751456D01*
X1745678Y4514359D02*
G01*
X1736443Y4509742D01*
X1727205Y4500504D01*
X1722587Y4491268D01*
X1722587Y4472795D01*
X1727205Y4463559D01*
X1736443Y4454321D01*
X1745678Y4449704D01*
X1759534Y4445086D01*
X1782625Y4445086D01*
X1796478Y4449704D01*
X1805713Y4454321D01*
X1814951Y4463559D01*
X1819569Y4472795D01*
X1819569Y4491268D01*
X1814951Y4500504D01*
X1805713Y4509742D01*
X1796478Y4514359D01*
X1782625Y4514359D01*
X1782625Y4491268D02*
G01*
X1782625Y4514359D01*
X1722587Y4544839D02*
G01*
X1768769Y4581784D01*
X1819569Y4581784D01*
X1722587Y4618730D02*
G01*
X1768769Y4581784D01*
X1778005Y4649210D02*
G01*
X1778005Y4732337D01*
X1722587Y4762817D02*
G01*
X1819569Y4762817D01*
X1722587Y4762817D02*
G01*
X1722587Y4804382D01*
X1727205Y4818235D01*
X1731825Y4822852D01*
X1741060Y4827470D01*
X1750296Y4827470D01*
X1759534Y4822852D01*
X1764151Y4818235D01*
X1768769Y4804382D01*
X1768769Y4762817D02*
G01*
X1768769Y4804382D01*
X1773387Y4818235D01*
X1778005Y4822852D01*
X1787243Y4827470D01*
X1801096Y4827470D01*
X1810334Y4822852D01*
X1814951Y4818235D01*
X1819569Y4804382D01*
X1819569Y4762817D01*
X1722587Y4857950D02*
G01*
X1819569Y4857950D01*
X1722587Y4857950D02*
G01*
X1819569Y4894897D01*
X1722587Y4931841D02*
G01*
X1819569Y4894897D01*
X1722587Y4931841D02*
G01*
X1819569Y4931841D01*
X1722587Y4962321D02*
G01*
X1819569Y4962321D01*
X1741060Y4992801D02*
G01*
X1736443Y5002039D01*
X1722587Y5015892D01*
X1819569Y5015892D01*
X1736443Y5101790D02*
G01*
X1727205Y5097172D01*
X1722587Y5083319D01*
X1722587Y5074081D01*
X1727205Y5060228D01*
X1741060Y5050990D01*
X1764151Y5046372D01*
X1787243Y5046372D01*
X1805713Y5050990D01*
X1814951Y5060228D01*
X1819569Y5074081D01*
X1819569Y5078702D01*
X1814951Y5092555D01*
X1805713Y5101790D01*
X1791860Y5106410D01*
X1787243Y5106410D01*
X1773387Y5101790D01*
X1764151Y5092555D01*
X1759534Y5078702D01*
X1759534Y5074081D01*
X1764151Y5060228D01*
X1773387Y5050990D01*
X1787243Y5046372D01*
X1722587Y5164599D02*
G01*
X1727205Y5150744D01*
X1741060Y5141508D01*
X1764151Y5136890D01*
X1778005Y5136890D01*
X1801096Y5141508D01*
X1814951Y5150744D01*
X1819569Y5164599D01*
X1819569Y5173835D01*
X1814951Y5187690D01*
X1801096Y5196926D01*
X1778005Y5201544D01*
X1764151Y5201544D01*
X1741060Y5196926D01*
X1727205Y5187690D01*
X1722587Y5173835D01*
X1722587Y5164599D01*
X1625600Y4711700D02*
G01*
X1625600Y4432300D01*
X1600200Y4737100D02*
G01*
X1447800Y4737100D01*
X1600200Y4406900D02*
G01*
X1447800Y4406900D01*
X1422400Y4432300D02*
G01*
X1422400Y4711700D01*
X635000Y5524500D02*
G01*
X635000Y5715000D01*
X381000Y5715000D01*
X381000Y4445000D01*
X635000Y4445000D01*
D13*
X635000Y4445000D02*
G01*
X635000Y5524500D01*
D12*
X635000Y3937000D02*
G01*
X381000Y3937000D01*
X381000Y4191000D01*
X635000Y4191000D01*
X635000Y4000500D01*
D13*
X635000Y3937000D02*
G01*
X635000Y4000500D01*
D14*
X1270000Y5715134D02*
G01*
X1143068Y5715086D01*
X1143000Y5588134D01*
X1143000Y3937134D01*
X1143000Y3937134D01*
X2286000Y3937134D01*
X2413068Y3937086D01*
X2413000Y4064134D01*
X2413000Y5588134D01*
X2413068Y5715086D01*
X2286000Y5715134D01*
X1270000Y5715134D01*
D12*
G75*
G01*
X1422400Y4711700D02*
G02*
X1447800Y4737100I25400J0D01*
G75*
G01*
X1447800Y4406900D02*
G02*
X1422400Y4432300I0J25400D01*
G75*
G01*
X1600200Y4406900D02*
G03*
X1625600Y4432300I0J25400D01*
G75*
G01*
X1625600Y4711700D02*
G03*
X1600200Y4737100I-25400J0D01*
M02*
