G04 Layer: TopLayer*
G04 EasyEDA v6.5.22, 2023-01-09 16:32:10*
G04 a5f1863f92214070b907f627d0471349,a9f00e695b414744abbaf3eb758947ea,10*
G04 Gerber Generator version 0.2*
G04 Scale: 100 percent, Rotated: No, Reflected: No *
G04 Dimensions in millimeters *
G04 leading zeros omitted , absolute positions ,4 integer and 5 decimal *
%FSLAX45Y45*%
%MOMM*%

%AMMACRO1*4,1,4,-0.8001,-0.5842,-0.8001,0.5842,0.8001,0.5842,0.8001,-0.5842,-0.8001,-0.5842,0*%
%ADD10C,0.2540*%
%ADD11C,1.0000*%
%ADD12MACRO1*%
%ADD13R,0.2032X0.6350*%
%ADD14C,2.0320*%
%ADD15C,1.5748*%
%ADD16R,1.5748X1.5748*%

%LPD*%
G36*
X586740Y5666740D02*
G01*
X586740Y5509260D01*
X736752Y5538012D01*
X736752Y5637987D01*
G37*
G36*
X1202842Y4140301D02*
G01*
X1131722Y4114088D01*
X1131773Y4014063D01*
X1202893Y3987901D01*
G37*
G36*
X1202842Y4648250D02*
G01*
X1131722Y4621987D01*
X1131773Y4522012D01*
X1202893Y4495850D01*
G37*
G36*
X1202842Y4902250D02*
G01*
X1131722Y4875987D01*
X1131773Y4776012D01*
X1202893Y4749850D01*
G37*
G36*
X1202842Y5156250D02*
G01*
X1131722Y5129987D01*
X1131773Y5030012D01*
X1202893Y5003850D01*
G37*
G36*
X1202842Y5410250D02*
G01*
X1131722Y5383987D01*
X1131773Y5284012D01*
X1202893Y5257850D01*
G37*
G36*
X1202842Y5664250D02*
G01*
X1131722Y5637987D01*
X1131773Y5538012D01*
X1202893Y5511850D01*
G37*
G36*
X560070Y4123080D02*
G01*
X560070Y4004970D01*
X615188Y4014012D01*
X615188Y4113987D01*
G37*
G36*
X560070Y5393029D02*
G01*
X560070Y5274970D01*
X615188Y5284012D01*
X615188Y5383987D01*
G37*
G36*
X560070Y5139029D02*
G01*
X560070Y5020970D01*
X615188Y5030012D01*
X615188Y5129987D01*
G37*
G36*
X560070Y4885029D02*
G01*
X560070Y4766970D01*
X615188Y4776012D01*
X615188Y4875987D01*
G37*
G36*
X560070Y4631029D02*
G01*
X560070Y4512970D01*
X615188Y4522012D01*
X615188Y4621987D01*
G37*
D10*
X1524000Y4648200D02*
G01*
X1524000Y4826152D01*
X1270076Y5080076D01*
X1270076Y4064076D02*
G01*
X1524000Y4318000D01*
X1524000Y4495800D01*
D11*
X508000Y5588000D02*
G01*
X1269982Y5588000D01*
X1270068Y5588086D01*
X508000Y5334000D02*
G01*
X1269982Y5334000D01*
X1270068Y5334086D01*
X508000Y5080000D02*
G01*
X1269982Y5080000D01*
X1270068Y5080086D01*
X508000Y4826000D02*
G01*
X1269982Y4826000D01*
X1270068Y4826086D01*
X508000Y4572000D02*
G01*
X1269982Y4572000D01*
X1270068Y4572086D01*
X508000Y4064000D02*
G01*
X1270000Y4064000D01*
D12*
G01*
X1524000Y4495800D03*
G01*
X1524000Y4648200D03*
D13*
G01*
X1524000Y4572000D03*
D14*
G01*
X1270076Y5588076D03*
G01*
X1270076Y5334076D03*
G01*
X1270076Y5080076D03*
G01*
X1270076Y4826076D03*
G01*
X1270076Y4572076D03*
G01*
X1270076Y4318076D03*
G01*
X1270076Y4064076D03*
G01*
X2286076Y5334076D03*
G01*
X2286076Y5080076D03*
G01*
X2286076Y4826076D03*
G01*
X2286076Y4572076D03*
G01*
X2286076Y4318076D03*
D15*
G01*
X508000Y4572000D03*
G01*
X508000Y4826000D03*
G01*
X508000Y5080000D03*
G01*
X508000Y5334000D03*
D16*
G01*
X508000Y5588000D03*
D15*
G01*
X508000Y4064000D03*
M02*
